<svg width="1024" height="1024" viewBox="0 0 1024 1024" fill="none" xmlns="http://www.w3.org/2000/svg">
<path d="M659.182 811.323C668.306 819.169 677.3 827.076 686.162 835.042C697.227 834.426 708.18 833.663 719.019 832.748C730.311 831.433 741.453 829.95 752.444 828.295C763.115 826.306 773.615 824.149 783.947 821.825C793.918 819.169 803.699 816.35 813.293 813.369C822.491 810.063 831.485 806.602 840.274 802.979C842.662 801.857 845.03 800.721 847.382 799.574C845.772 797.254 844.15 794.936 842.512 792.618C834.697 782.359 826.624 772.133 818.294 761.94C809.471 751.834 800.41 741.781 791.116 731.779C781.372 721.899 771.417 712.089 761.247 702.346C750.677 692.762 739.921 683.263 728.975 673.85C717.679 664.628 706.222 655.506 694.604 646.489C682.689 637.69 670.639 629.009 658.456 620.445C654.664 617.908 650.864 615.383 647.054 612.87C640.278 612.426 633.483 611.922 626.669 611.358C616.98 610.328 607.273 609.181 597.547 607.92C587.801 606.435 578.056 604.837 568.311 603.129C558.584 601.208 548.879 599.181 539.19 597.049C529.56 594.716 519.97 592.283 510.417 589.753C500.961 587.035 491.563 584.226 482.222 581.328C473.015 578.257 463.886 575.104 454.834 571.87C445.952 568.481 437.167 565.021 428.476 561.486C419.993 557.817 411.624 554.087 403.367 550.293C395.354 546.384 387.47 542.425 379.715 538.413C372.237 534.308 364.905 530.163 357.72 525.976C350.842 521.721 344.123 517.436 337.567 513.123C331.346 508.763 325.3 504.387 319.428 499.994C313.918 495.578 308.596 491.159 303.461 486.735C298.711 482.312 294.159 477.899 289.807 473.492C286.986 470.364 284.271 467.247 281.662 464.14C279.556 463.802 277.454 463.472 275.359 463.146C264.208 461.758 253.233 460.558 242.433 459.553C232.006 458.929 221.776 458.496 211.743 458.251C202.127 458.383 192.728 458.7 183.548 459.201C174.823 460.068 166.337 461.116 158.087 462.342C150.328 463.921 142.823 465.671 135.57 467.594C128.842 469.854 122.381 472.277 116.188 474.864C110.544 477.77 105.181 480.827 100.097 484.039C95.5838 487.547 91.3605 491.198 87.427 494.992C84.0806 499.059 81.0311 503.256 78.2783 507.582C76.1245 512.156 74.272 516.847 72.721 521.655C71.775 526.683 71.1325 531.811 70.7934 537.045C71.0608 542.467 71.6309 547.978 72.5037 553.576C73.9792 559.336 75.7543 565.166 77.829 571.067C80.4974 577.098 83.4599 583.185 86.716 589.326C88.7215 592.588 90.8051 595.86 92.9666 599.141C99.7396 598.2 106.669 597.378 113.755 596.673C122.935 596.171 132.333 595.855 141.949 595.724C151.982 595.967 162.212 596.402 172.64 597.024C183.44 598.031 194.415 599.228 205.564 600.619C217.04 602.395 228.666 604.365 240.443 606.527C252.495 609.077 264.672 611.818 276.976 614.754C289.499 618.072 302.123 621.581 314.844 625.28C327.732 629.357 340.691 633.621 353.72 638.07C366.861 642.889 380.042 647.889 393.264 653.07C406.539 658.606 419.826 664.316 433.126 670.2C446.418 676.426 459.693 682.815 472.951 689.371C486.142 696.249 499.289 703.281 512.385 710.469C525.358 717.958 538.254 725.59 551.072 733.367C563.709 741.419 576.238 749.602 588.663 757.916C600.846 766.48 612.895 775.16 624.809 783.96C636.428 792.979 647.885 802.098 659.182 811.323Z" fill="#FFC686"/>
<path d="M874.307 842.236L868.395 853.882C867.007 856.73 865.57 859.558 864.087 862.367C860.084 868.735 855.823 874.989 851.302 881.125C846.269 887.019 840.984 892.788 835.445 898.428C829.41 903.807 823.131 909.049 816.608 914.156C809.607 918.98 802.373 923.66 794.905 928.195C789.246 931.224 783.473 934.174 777.587 937.044C783.137 945.043 788.52 953.049 793.736 961.063C799.894 971.415 805.76 981.764 811.334 992.109C816.304 1002.43 820.966 1012.73 825.32 1023L895.114 885.529C890.76 875.254 886.096 864.957 881.127 854.638C878.901 850.504 876.626 846.371 874.307 842.236Z" fill="#FFC686"/>
<path d="M909.769 516.58C907.925 520.045 905.995 523.474 903.979 526.869C900.636 531.704 897.11 536.455 893.397 541.121C889.32 545.612 885.061 550.009 880.623 554.314C875.828 558.429 870.86 562.442 865.718 566.357C860.234 570.069 854.585 573.674 848.769 577.173C842.629 580.456 836.333 583.629 829.878 586.689C823.121 589.525 816.218 592.245 809.166 594.849C805.485 596.038 801.771 597.198 798.022 598.328C799.629 600.14 801.229 601.954 802.819 603.771C809.471 611.864 815.937 619.993 822.214 628.159C828.103 636.38 833.787 644.624 839.268 652.888C844.325 661.182 849.166 669.481 853.79 677.789C857.963 686.095 861.906 694.395 865.618 702.686C868.859 710.948 871.858 719.188 874.614 727.405C876.878 735.565 878.89 743.688 880.652 751.773C881.906 759.771 882.902 767.717 883.642 775.612C883.669 776.584 883.692 777.554 883.71 778.523C884.612 777.911 885.508 777.3 886.401 776.684C892.924 771.579 899.203 766.336 905.238 760.958C910.777 755.315 916.062 749.548 921.095 743.653C925.616 737.516 929.877 731.264 933.88 724.895C937.36 718.306 940.577 711.613 943.531 704.816C945.955 697.824 948.114 690.738 950.008 683.561C951.372 676.214 952.469 668.788 953.304 661.283C953.61 653.634 953.653 645.92 953.434 638.14C952.696 630.244 951.7 622.298 950.446 614.3C948.683 606.215 946.67 598.094 944.406 589.935C941.651 581.717 938.652 573.477 935.413 565.215C931.7 556.923 927.756 548.623 923.583 540.317C919.175 532.398 914.572 524.485 909.769 516.58Z" fill="#FFC686"/>
<path d="M620.187 455.714C625.535 458.868 630.87 462.056 636.192 465.279C636.83 465.406 637.467 465.532 638.103 465.659C647.85 467.365 657.596 468.962 667.341 470.449C677.067 471.71 686.775 472.856 696.463 473.886C706.093 474.682 715.687 475.36 725.243 475.919C734.705 476.239 744.111 476.434 753.461 476.51C762.681 476.341 771.83 476.049 780.902 475.633C789.812 474.971 798.631 474.184 807.362 473.276C815.894 472.118 824.322 470.838 832.644 469.436C840.738 467.788 848.713 466.019 856.566 464.128C860.349 463.067 864.099 461.976 867.815 460.855C862.336 454.681 856.756 448.536 851.074 442.419C843.403 434.619 835.581 426.883 827.609 419.207C819.355 411.67 810.971 404.206 802.456 396.818C793.699 389.591 784.833 382.451 775.857 375.398C766.683 368.528 757.419 361.754 748.068 355.078C738.563 348.608 728.99 342.245 719.353 335.99C709.606 329.957 699.814 324.042 689.98 318.243C680.081 312.684 670.162 307.249 660.221 301.94C650.262 296.884 640.305 291.961 630.35 287.168C620.421 282.643 610.517 278.255 600.636 274.004C590.827 270.03 581.066 266.197 571.35 262.506C561.75 259.099 552.216 255.838 542.751 252.721C533.443 249.892 524.224 247.213 515.093 244.677C506.159 242.436 497.336 240.341 488.62 238.393C480.139 236.738 471.787 235.23 463.561 233.868C455.608 232.795 447.798 231.869 440.134 231.085C432.775 230.589 425.577 230.233 418.54 230.019C411.837 230.083 405.311 230.286 398.96 230.624C392.973 231.232 387.174 231.973 381.563 232.845C376.338 233.973 371.315 235.23 366.49 236.609C362.072 238.233 357.864 239.976 353.865 241.836C350.29 243.923 346.932 246.121 343.791 248.428C341.086 250.946 338.604 253.564 336.345 256.283C334.532 259.194 332.946 262.194 331.584 265.287C331.51 265.555 331.436 265.824 331.365 266.092C330.565 269.099 329.958 272.172 329.542 275.312C329.542 278.883 329.771 282.523 330.225 286.231C331.131 290.066 332.263 293.956 333.621 297.906C335.423 301.956 337.446 306.053 339.691 310.193C342.372 314.411 345.267 318.663 348.379 322.948C351.912 327.285 355.652 331.643 359.6 336.022C363.954 340.427 368.506 344.841 373.255 349.262C378.39 353.686 383.713 358.107 389.221 362.522C393.919 366.037 398.729 369.542 403.651 373.035C408.662 373.925 413.721 374.868 418.827 375.864C427.542 377.812 436.367 379.907 445.3 382.149C454.431 384.683 463.65 387.365 472.958 390.191C482.423 393.309 491.955 396.572 501.556 399.978C511.272 403.669 521.034 407.502 530.843 411.476C540.723 415.726 550.628 420.116 560.556 424.639C570.511 429.433 580.468 434.357 590.428 439.411C600.368 444.722 610.287 450.155 620.187 455.714Z" fill="#FFC686"/>
<path d="M943.911 191.27C942.573 193.134 941.198 194.983 939.791 196.817C936.987 200.072 934.071 203.273 931.043 206.418C927.796 209.448 924.439 212.419 920.975 215.329C917.299 218.116 913.517 220.839 909.631 223.498C905.542 226.024 901.355 228.483 897.068 230.875C892.589 233.127 888.018 235.309 883.354 237.419C878.512 239.385 873.585 241.276 868.57 243.095C863.394 244.763 858.14 246.356 852.809 247.875C847.332 249.24 841.786 250.527 836.171 251.738C830.429 252.793 824.626 253.771 818.767 254.672C814.549 255.198 810.309 255.685 806.042 256.133C808.375 258.137 810.699 260.15 813.015 262.174C818.932 267.597 824.771 273.079 830.532 278.62C836.121 284.274 841.616 289.978 847.017 295.734C852.219 301.583 857.313 307.475 862.298 313.41C867.057 319.42 871.693 325.464 876.21 331.542C880.471 337.676 884.6 343.835 888.594 350.016C892.31 356.235 895.881 362.468 899.308 368.716C902.436 374.979 905.406 381.247 908.221 387.518C910.717 393.786 913.048 400.048 915.214 406.301C917.044 412.533 918.701 418.746 920.185 424.941C920.956 429.125 921.644 433.296 922.249 437.455C926.774 434.665 931.195 431.808 935.511 428.886C940.654 424.971 945.623 420.956 950.415 416.842C954.855 412.538 959.113 408.139 963.192 403.65C966.902 398.983 970.431 394.232 973.771 389.397C976.457 384.878 978.987 380.297 981.365 375.653L982.113 374.181C984.327 368.889 986.352 363.53 988.185 358.104C989.642 352.553 990.91 346.944 991.987 341.277C992.689 335.505 993.202 329.684 993.529 323.816C993.484 317.862 993.255 311.869 992.842 305.84C992.066 299.744 991.112 293.621 989.98 287.47C988.495 281.273 986.837 275.061 985.008 268.83C982.841 262.575 980.509 256.315 978.015 250.047C975.199 243.776 972.228 237.508 969.103 231.243C965.676 224.997 962.105 218.764 958.387 212.545C954.393 206.362 950.264 200.205 946.003 194.07C945.308 193.136 944.611 192.202 943.911 191.27Z" fill="#FFC686"/>
<path d="M851.946 120.269C858.171 119.99 864.361 119.634 870.511 119.2C872.29 119.027 874.065 118.847 875.835 118.661C872.061 115.42 868.263 112.205 864.44 109.016C858.144 103.995 851.8 99.0495 845.409 94.1767C838.937 89.4587 832.435 84.8213 825.899 80.2645C819.318 75.8736 812.719 71.568 806.104 67.3477C799.474 63.3044 792.846 59.3512 786.216 55.488C779.602 51.8097 773.003 48.2262 766.421 44.7359C759.884 41.4367 753.38 38.2356 746.905 35.1308C740.507 32.222 734.156 29.4127 727.851 26.7029C721.651 24.1922 715.512 21.7811 709.432 19.4727C703.485 17.3633 697.614 15.3551 691.815 13.448C686.178 11.74 680.625 10.1331 675.16 8.62731C669.878 7.31904 664.695 6.11033 659.612 4.99957C654.733 4.08315 649.966 3.26467 645.306 2.5426C640.875 2.00855 636.562 1.56931 632.368 1.22328C628.422 1.06054 624.601 0.98628 620.908 1.00208C617.477 1.19326 614.182 1.46818 611.02 1.82843C608.135 2.35458 605.389 2.95974 602.787 3.64389C600.469 4.48289 598.297 5.39615 596.27 6.3821C594.54 7.51024 592.957 8.70632 591.524 9.97035C590.392 11.3624 589.41 12.8144 588.581 14.3281C588.054 15.9555 587.679 17.6367 587.457 19.37C587.538 21.2044 587.77 23.0831 588.156 25.0091C588.84 27.0173 589.676 29.0635 590.662 31.1475C591.944 33.2996 593.371 35.4816 594.945 37.692C596.81 39.9547 598.816 42.2378 600.965 44.5431C603.392 46.8831 605.957 49.2342 608.659 51.5995C611.627 53.9838 614.727 56.3712 617.956 58.7634C621.438 61.1556 625.042 63.5462 628.769 65.932C632.733 68.3021 636.81 70.6611 641.002 73.009C645.413 75.3253 649.929 77.6211 654.547 79.8979C659.366 82.1274 664.279 84.3299 669.287 86.5056C674.473 88.6197 679.742 90.6975 685.094 92.7436C690.602 94.7123 696.183 96.64 701.836 98.525C707.621 100.323 713.466 102.072 719.37 103.774C725.384 105.374 731.447 106.923 737.555 108.416C743.748 109.797 749.977 111.119 756.241 112.383C762.564 113.524 768.91 114.602 775.279 115.616C781.682 116.499 788.093 117.315 794.517 118.062C800.949 118.672 807.377 119.209 813.806 119.677C820.217 119.999 826.613 120.247 832.997 120.423C839.338 120.448 845.655 120.396 851.946 120.269Z" fill="#FFC686"/>
<path d="M78.2783 507.582L8.48503 645.054C6.33109 649.628 4.47872 654.318 2.92756 659.126C1.98176 664.154 1.33924 669.284 1 674.517C1.2675 679.94 1.8376 685.451 2.71029 691.049C4.18593 696.807 5.96106 702.637 8.0357 708.54C10.7042 714.569 13.6666 720.656 16.9227 726.799C20.7589 733.037 24.881 739.313 29.2887 745.63C34.258 752.008 39.5024 758.411 45.022 764.835C51.0799 771.289 57.4003 777.749 63.9834 784.214C71.0771 790.675 78.4185 797.125 86.0074 803.565C94.0755 809.967 102.374 816.343 110.904 822.69C119.878 828.967 129.062 835.202 138.46 841.394C148.262 847.483 158.257 853.513 168.443 859.485C178.991 865.324 189.709 871.089 200.598 876.78C211.804 882.31 223.157 887.752 234.657 893.105C246.429 898.269 258.323 903.331 270.339 908.293C282.577 913.037 294.915 917.67 307.349 922.187C319.953 926.465 332.631 930.619 345.38 934.646C358.25 938.413 371.165 942.044 384.127 945.539C397.155 948.754 410.205 951.824 423.274 954.75C436.356 957.38 449.434 959.855 462.506 962.181C475.54 964.194 488.542 966.048 501.513 967.745C514.393 969.118 527.217 970.326 539.983 971.372C552.612 972.086 565.156 972.635 577.619 973.014C589.895 973.058 602.064 972.932 614.126 972.636C625.955 972.001 637.654 971.195 649.227 970.22C660.518 968.906 671.659 967.421 682.651 965.768C693.322 963.777 703.823 961.62 714.153 959.296C724.123 956.642 733.907 953.823 743.5 950.84C752.699 947.536 761.692 944.072 770.481 940.451C772.867 939.328 775.238 938.193 777.587 937.044C783.473 934.174 789.246 931.224 794.905 928.195C802.373 923.66 809.607 918.98 816.608 914.156C823.131 909.049 829.41 903.807 835.445 898.428C840.984 892.788 846.269 887.019 851.302 881.125C855.823 874.989 860.084 868.735 864.087 862.367L868.395 853.882C870.261 850.052 872.042 846.188 873.736 842.288C873.814 842.069 873.889 841.847 873.965 841.628L874.307 842.236L933.88 724.895C929.877 731.264 925.616 737.516 921.095 743.653C916.062 749.548 910.777 755.315 905.238 760.958C899.203 766.336 892.924 771.579 886.401 776.684C885.508 777.3 884.612 777.911 883.71 778.523C877.552 782.7 871.213 786.767 864.698 790.724C859.038 793.751 853.267 796.701 847.382 799.574C845.03 800.721 842.662 801.857 840.274 802.979C831.485 806.602 822.491 810.063 813.293 813.369C803.699 816.35 793.918 819.169 783.947 821.825C773.615 824.149 763.115 826.306 752.444 828.295C741.453 829.95 730.311 831.433 719.019 832.748C708.18 833.663 697.227 834.426 686.162 835.042C685.416 835.083 684.668 835.124 683.919 835.164C671.857 835.459 659.688 835.586 647.412 835.543C634.948 835.162 622.404 834.616 609.778 833.9C597.01 832.855 584.187 831.645 571.306 830.272C558.335 828.577 545.333 826.722 532.299 824.709C519.228 822.385 506.151 819.907 493.066 817.279C479.998 814.353 466.949 811.282 453.92 808.068C440.958 804.571 428.042 800.94 415.175 797.173C402.424 793.146 389.746 788.994 377.141 784.715C364.707 780.198 352.371 775.567 340.133 770.82C328.116 765.86 316.222 760.798 304.452 755.634C292.95 750.28 281.598 744.838 270.391 739.309C259.503 733.618 248.784 727.853 238.235 722.013C228.05 716.042 218.055 710.011 208.253 703.921C198.855 697.731 189.671 691.496 180.698 685.219C172.167 678.87 163.869 672.495 155.801 666.094C148.212 659.654 140.87 653.202 133.776 646.742C127.194 640.276 120.874 633.817 114.815 627.364C109.296 620.94 104.051 614.537 99.0821 608.159C96.9786 605.144 94.9401 602.139 92.9666 599.141C90.8051 595.86 88.7215 592.588 86.716 589.326C83.4599 583.185 80.4974 577.098 77.829 571.067C75.7543 565.166 73.9792 559.336 72.5037 553.576C71.6309 547.978 71.0608 542.467 70.7934 537.045C71.1325 531.811 71.775 526.683 72.721 521.655C74.272 516.847 76.1245 512.156 78.2783 507.582Z" fill="#FF8906"/>
<path d="M261.791 402.757C260.883 406.02 260.202 409.362 259.747 412.784C259.749 416.355 259.976 419.994 260.432 423.702C261.339 427.537 262.471 431.429 263.826 435.377C265.629 439.428 267.654 443.524 269.899 447.665C272.579 451.884 275.474 456.136 278.584 460.419C279.594 461.658 280.619 462.898 281.662 464.14C284.271 467.247 286.986 470.364 289.807 473.492C294.159 477.899 298.711 482.312 303.461 486.735C308.596 491.159 313.918 495.578 319.428 499.994C325.3 504.387 331.346 508.763 337.567 513.123C344.123 517.436 350.842 521.721 357.72 525.976C364.905 530.163 372.237 534.308 379.715 538.413C387.47 542.425 395.354 546.384 403.367 550.293C411.624 554.087 419.993 557.817 428.476 561.486C437.167 565.021 445.952 568.481 454.834 571.87C463.886 575.104 473.015 578.257 482.222 581.328C491.563 584.226 500.961 587.035 510.417 589.753C519.97 592.283 529.56 594.716 539.19 597.049C548.879 599.181 558.584 601.208 568.311 603.129C578.056 604.837 587.801 606.435 597.547 607.92C607.273 609.181 616.98 610.328 626.669 611.358C633.483 611.922 640.278 612.426 647.054 612.87C649.856 613.054 652.655 613.227 655.451 613.392C664.912 613.709 674.318 613.907 683.668 613.983C692.889 613.814 702.035 613.521 711.11 613.106C720.019 612.442 728.839 611.657 737.569 610.747C746.102 609.59 754.529 608.31 762.85 606.907C770.946 605.259 778.919 603.491 786.774 601.6C790.557 600.538 794.305 599.448 798.022 598.328C801.771 597.198 805.485 596.038 809.166 594.849C816.218 592.245 823.121 589.525 829.878 586.689C836.333 583.629 842.629 580.456 848.769 577.173C854.585 573.674 860.234 570.069 865.718 566.357C870.86 562.442 875.828 558.429 880.623 554.314C885.061 550.009 889.32 545.612 893.397 541.121C897.11 536.455 900.636 531.704 903.979 526.869C905.995 523.474 907.925 520.045 909.769 516.58C910.638 514.945 911.488 513.303 912.318 511.652L981.365 375.653C978.987 380.297 976.457 384.878 973.771 389.397C970.431 394.232 966.902 398.983 963.192 403.65C959.113 408.139 954.855 412.538 950.415 416.842C945.623 420.956 940.654 424.971 935.511 428.886C931.195 431.808 926.774 434.665 922.249 437.455C921.028 438.209 919.8 438.958 918.563 439.702C912.423 442.985 906.126 446.156 899.671 449.218C892.914 452.053 886.01 454.772 878.961 457.376C875.279 458.566 871.564 459.726 867.815 460.855C864.099 461.976 860.349 463.067 856.566 464.128C848.713 466.019 840.738 467.788 832.644 469.436C824.322 470.838 815.894 472.118 807.362 473.276C798.631 474.184 789.812 474.971 780.902 475.633C771.83 476.049 762.681 476.341 753.461 476.51C744.111 476.434 734.705 476.239 725.243 475.919C715.687 475.36 706.093 474.682 696.463 473.886C686.775 472.856 677.067 471.71 667.341 470.449C657.596 468.962 647.85 467.365 638.103 465.659C637.467 465.532 636.83 465.406 636.192 465.279C627.106 463.47 618.037 461.569 608.983 459.577C599.355 457.243 589.762 454.812 580.21 452.282C570.754 449.563 561.356 446.755 552.015 443.856C542.81 440.786 533.68 437.632 524.626 434.398C515.746 431.01 506.961 427.548 498.27 424.015C489.788 420.346 481.417 416.614 473.161 412.821C465.147 408.913 457.263 404.952 449.509 400.94C442.031 396.837 434.7 392.691 427.514 388.505C420.635 384.25 413.917 379.965 407.36 375.652C406.116 374.78 404.879 373.908 403.651 373.035C398.729 369.542 393.919 366.037 389.221 362.522C383.713 358.107 378.39 353.686 373.255 349.262C368.506 344.841 363.954 340.427 359.6 336.022C355.652 331.643 351.912 327.285 348.379 322.948C345.267 318.663 342.372 314.411 339.691 310.193C337.446 306.053 335.423 301.956 333.621 297.906C332.263 293.956 331.131 290.066 330.225 286.231C329.771 282.523 329.542 278.883 329.542 275.312C329.958 272.172 330.565 269.099 331.365 266.092C331.436 265.824 331.51 265.555 331.584 265.287L261.791 402.757Z" fill="#FF8906"/>
<path d="M870.511 119.2C864.361 119.634 858.171 119.99 851.946 120.269C845.655 120.396 839.338 120.448 832.997 120.423C826.613 120.247 820.217 119.999 813.806 119.677C807.377 119.209 800.949 118.672 794.517 118.062C788.093 117.315 781.682 116.499 775.279 115.616C768.91 114.602 762.564 113.524 756.241 112.383C749.977 111.119 743.748 109.797 737.555 108.416C731.447 106.923 725.384 105.374 719.37 103.774C713.466 102.072 707.621 100.323 701.836 98.525C696.183 96.64 690.602 94.7123 685.094 92.7436C679.742 90.6975 674.473 88.6197 669.287 86.5056C664.279 84.3299 659.366 82.1274 654.547 79.8979C649.929 77.6211 645.413 75.3253 641.002 73.009C636.81 70.6611 632.733 68.3021 628.769 65.932C625.042 63.5462 621.438 61.1556 617.956 58.7634C614.727 56.3712 611.627 53.9838 608.659 51.5995C605.957 49.2342 603.392 46.8831 600.965 44.5431C598.816 42.2378 596.81 39.9547 594.945 37.692C593.371 35.4816 591.944 33.2996 590.662 31.1475C589.676 29.0635 588.84 27.0173 588.156 25.0091C587.77 23.0831 587.538 21.2044 587.457 19.37C587.679 17.6367 588.054 15.9555 588.581 14.3281L518.788 151.799C518.26 153.426 517.886 155.108 517.663 156.842C517.745 158.675 517.978 160.556 518.361 162.48C519.048 164.488 519.884 166.536 520.868 168.62C522.149 170.772 523.579 172.952 525.153 175.164C527.018 177.427 529.023 179.71 531.172 182.016C533.599 184.354 536.164 186.707 538.865 189.072C541.834 191.455 544.932 193.842 548.161 196.234C551.643 198.628 555.249 201.017 558.975 203.404C562.938 205.775 567.017 208.134 571.209 210.48C575.62 212.796 580.134 215.092 584.755 217.369C589.573 219.6 594.486 221.802 599.494 223.976C604.681 226.091 609.948 228.17 615.301 230.215C620.81 232.183 626.39 234.111 632.043 235.997C637.826 237.794 643.672 239.545 649.578 241.246C655.592 242.847 661.652 244.394 667.763 245.888C673.955 247.269 680.185 248.592 686.448 249.854C692.772 250.997 699.116 252.074 705.486 253.089C711.887 253.97 718.3 254.786 724.724 255.535C731.154 256.143 737.584 256.682 744.011 257.148C750.423 257.47 756.82 257.72 763.203 257.894C769.545 257.919 775.862 257.868 782.151 257.742C788.379 257.462 794.566 257.105 800.718 256.672C802.497 256.498 804.272 256.32 806.042 256.133C810.309 255.685 814.549 255.198 818.767 254.672C824.626 253.771 830.429 252.793 836.171 251.738C841.786 250.527 847.332 249.24 852.809 247.875C858.14 246.356 863.394 244.763 868.57 243.095C873.585 241.276 878.512 239.385 883.354 237.419C888.018 235.309 892.589 233.127 897.068 230.875C901.355 228.483 905.542 226.024 909.631 223.498C913.517 220.839 917.299 218.116 920.975 215.329C924.439 212.419 927.796 209.448 931.043 206.418C934.071 203.273 936.987 200.072 939.791 196.817C941.198 194.983 942.573 193.134 943.911 191.27C945.026 189.718 946.118 188.157 947.185 186.587C949.307 183.032 951.315 179.432 953.207 175.789L1023 38.3162C1021.11 41.9597 1019.1 45.559 1016.98 49.1141C1014.63 52.5744 1012.16 55.9857 1009.58 59.3448C1006.78 62.6013 1003.86 65.8009 1000.84 68.9467C997.588 71.9772 994.232 74.9477 990.769 77.8581C987.091 80.6437 983.31 83.3677 979.424 86.0253C975.335 88.5533 971.148 91.0119 966.861 93.4025C962.383 95.6556 957.811 97.836 953.147 99.947C948.305 101.913 943.378 103.804 938.365 105.622C933.189 107.293 927.933 108.885 922.602 110.402C917.125 111.767 911.579 113.055 905.964 114.265C900.222 115.322 894.421 116.299 888.56 117.199C884.343 117.726 880.101 118.214 875.835 118.661C874.065 118.847 872.29 119.027 870.511 119.2Z" fill="#FF8906"/>
</svg>
