<svg width="1024" height="1024" viewBox="0 0 1024 1024" fill="none" xmlns="http://www.w3.org/2000/svg">
<path d="M855.08 780.964C857.543 779.484 859.981 777.99 862.395 776.48C855.728 768.428 848.891 760.406 841.883 752.412C832.662 742.576 823.201 732.804 813.5 723.095C803.343 713.53 792.971 704.048 782.384 694.645C771.393 685.423 760.213 676.298 748.845 667.272C737.129 658.457 725.252 649.755 713.214 641.168C700.886 632.823 688.427 624.606 675.837 616.519L675.002 616.011C666.127 616.395 657.191 616.664 648.196 616.818C638.763 616.731 629.285 616.521 619.762 616.189C610.168 615.614 600.55 614.921 590.906 614.108C581.233 613.061 571.555 611.897 561.872 610.62C552.2 609.118 542.544 607.504 532.903 605.782C523.315 603.845 513.764 601.806 504.249 599.663C494.828 597.32 485.463 594.881 476.156 592.346C466.984 589.627 457.889 586.819 448.871 583.924C440.028 580.862 431.282 577.722 422.633 574.503C414.197 571.136 405.878 567.701 397.676 564.197C389.724 560.566 381.907 556.878 374.224 553.132C366.827 549.281 359.583 545.383 352.49 541.439C345.717 537.413 339.112 533.353 332.674 529.259C326.587 525.107 320.682 520.932 314.96 516.736C309.616 512.508 304.467 508.269 299.514 504.021C294.965 499.767 290.622 495.517 286.486 491.268C282.775 487.04 279.28 482.829 276.003 478.632C275.855 478.417 275.709 478.202 275.563 477.987C268.569 477.645 261.656 477.382 254.824 477.199C244.639 477.29 234.672 477.567 224.923 478.031C215.631 478.86 206.578 479.868 197.765 481.056C189.448 482.595 181.388 484.308 173.586 486.192C166.316 488.411 159.319 490.793 152.596 493.337C146.434 496.197 140.559 499.209 134.971 502.374C129.969 505.832 125.265 509.43 120.859 513.167C117.057 517.174 113.562 521.308 110.373 525.569C107.803 530.072 105.543 534.687 103.596 539.416C102.274 544.357 101.266 549.397 100.573 554.535C100.507 559.855 100.756 565.256 101.318 570.741C102.506 576.374 104.003 582.075 105.812 587.842C108.237 593.725 110.966 599.657 114 605.639C117.636 611.703 121.569 617.799 125.797 623.929C128.173 626.979 130.619 630.034 133.134 633.091C136.447 632.404 139.803 631.747 143.202 631.117C152.016 629.929 161.069 628.921 170.36 628.092C180.109 627.628 190.077 627.351 200.262 627.26C210.861 627.545 221.655 628.02 232.645 628.685C244 629.735 255.525 630.977 267.221 632.412C279.232 634.236 291.386 636.253 303.684 638.464C316.241 641.064 328.914 643.858 341.704 646.845C354.695 650.216 367.773 653.78 380.937 657.534C394.244 661.667 407.607 665.987 421.027 670.495C434.528 675.371 448.054 680.428 461.605 685.666C475.175 691.261 488.739 697.029 502.297 702.97C515.811 709.25 529.287 715.696 542.725 722.305C556.055 729.234 569.317 736.318 582.509 743.554C595.531 751.088 608.453 758.762 621.274 766.58C633.864 774.667 646.324 782.884 658.652 791.229C670.689 799.816 682.566 808.518 694.283 817.333C697.166 819.621 700.036 821.916 702.895 824.219C704.032 824.123 705.167 824.025 706.302 823.925C717.778 822.557 729.108 821.018 740.294 819.31C751.168 817.262 761.874 815.045 772.413 812.66C782.598 809.943 792.595 807.061 802.404 804.015C811.819 800.645 821.027 797.115 830.03 793.425C838.603 789.424 846.953 785.27 855.08 780.964Z" fill="#FFC788"/>
<path d="M868.173 1024L922.736 873.939C918.106 863.764 913.159 853.576 907.893 843.376C902.701 834.373 897.274 825.375 891.611 816.383L881.514 844.153C878.485 851.003 875.184 857.75 871.611 864.395C867.498 870.824 863.118 877.139 858.47 883.339C853.295 889.299 847.86 895.133 842.166 900.842C835.961 906.289 829.507 911.6 822.804 916.775C817.923 920.098 812.932 923.353 807.833 926.541C809.46 928.506 811.078 930.474 812.685 932.442C820.329 942.548 827.69 952.681 834.766 962.84C841.257 973.031 847.445 983.231 853.331 993.437C858.596 1003.64 863.544 1013.83 868.173 1024Z" fill="#FFC788"/>
<path d="M914.54 529.657C909.694 521.433 904.622 513.222 899.323 505.025C896.445 500.933 893.513 496.848 890.528 492.77L890.386 493.163C890.031 494.571 889.664 495.975 889.284 497.376C887.371 502.852 885.261 508.26 882.954 513.603C880.253 518.801 877.358 523.923 874.267 528.969C870.789 533.854 867.119 538.654 863.258 543.369C859.02 547.906 854.596 552.349 849.987 556.7C845.013 560.857 839.861 564.913 834.531 568.869C828.853 572.618 823.006 576.259 816.99 579.794C810.646 583.109 804.145 586.313 797.485 589.403C795.722 590.126 793.951 590.842 792.17 591.551C797.071 596.596 801.897 601.664 806.65 606.756C813.6 614.697 820.356 622.68 826.919 630.707C833.077 638.805 839.024 646.931 844.761 655.086C850.059 663.283 855.132 671.494 859.978 679.718C864.357 687.956 868.496 696.192 872.396 704.426C875.804 712.643 878.96 720.843 881.864 729.027C884.256 737.163 886.387 745.268 888.257 753.341C888.487 754.712 888.709 756.083 888.923 757.452C891.567 755.251 894.169 753.027 896.728 750.78C902.422 745.071 907.857 739.238 913.032 733.277C917.68 727.077 922.06 720.763 926.174 714.334C929.747 707.689 933.048 700.942 936.076 694.092C938.557 687.051 940.763 679.92 942.694 672.701C944.074 665.318 945.179 657.858 946.01 650.323C946.292 642.652 946.301 634.919 946.037 627.125C945.233 619.223 944.16 611.275 942.819 603.28C940.949 595.207 938.818 587.102 936.427 578.966C933.522 570.782 930.366 562.582 926.958 554.365C923.059 546.131 918.919 537.895 914.54 529.657Z" fill="#FFC788"/>
<path d="M830.716 447.571C836.136 445.61 841.475 443.583 846.733 441.49C844.088 438.767 841.421 436.051 838.733 433.343C830.736 425.743 822.584 418.212 814.277 410.752C805.683 403.444 796.956 396.219 788.096 389.076C778.992 382.11 769.777 375.238 760.452 368.46C750.928 361.882 741.318 355.409 731.62 349.039C721.771 342.89 711.858 336.856 701.882 330.936C691.803 325.253 681.684 319.693 671.526 314.258C661.314 309.075 651.087 304.024 640.844 299.102C630.596 294.447 620.357 289.929 610.127 285.549C599.939 281.446 589.784 277.484 579.663 273.664C569.631 270.131 559.655 266.743 549.736 263.499C539.953 260.548 530.249 257.745 520.624 255.088C511.179 252.728 501.835 250.514 492.593 248.45C483.572 246.681 474.674 245.06 465.897 243.586C457.382 242.407 449.009 241.373 440.777 240.484C432.844 239.886 425.071 239.428 417.456 239.115C410.176 239.083 403.071 239.189 396.141 239.433C389.577 239.949 383.202 240.598 377.017 241.38C371.225 242.421 365.635 243.588 360.248 244.883C355.278 246.421 350.52 248.078 345.977 249.854C341.869 251.859 337.983 253.973 334.32 256.196C331.108 258.631 328.125 261.164 325.371 263.799C323.079 266.623 321.022 269.537 319.198 272.541L316.524 279.894C316.283 280.689 316.057 281.489 315.843 282.293C315.434 285.768 315.261 289.31 315.324 292.918C315.859 296.649 316.628 300.434 317.632 304.274C319.101 308.21 320.801 312.188 322.732 316.209C325.118 320.3 327.729 324.421 330.565 328.571C333.843 332.768 337.337 336.979 341.049 341.207C345.184 345.456 349.527 349.706 354.077 353.96C359.03 358.208 364.178 362.447 369.522 366.675C375.244 370.871 381.149 375.045 387.236 379.198C393.674 383.292 400.279 387.352 407.052 391.378C408.397 392.126 409.746 392.872 411.101 393.615L411.334 393.647C420.111 395.121 429.01 396.742 438.03 398.511C447.273 400.575 456.617 402.789 466.061 405.149C475.686 407.806 485.391 410.61 495.174 413.561C505.093 416.804 515.068 420.192 525.1 423.725C535.222 427.545 545.377 431.507 555.564 435.61C565.794 439.99 576.034 444.508 586.282 449.163C592.947 452.365 599.606 455.623 606.258 458.936C609.648 459.491 613.04 460.032 616.434 460.559C626.117 461.836 635.795 463 645.469 464.047C655.112 464.859 664.731 465.553 674.324 466.128C683.847 466.46 693.325 466.67 702.758 466.757C712.082 466.598 721.341 466.315 730.536 465.907C739.583 465.249 748.548 464.466 757.431 463.558C766.129 462.401 774.728 461.118 783.226 459.71C791.507 458.055 799.671 456.276 807.718 454.374C815.516 452.227 823.182 449.959 830.716 447.571Z" fill="#FFC788"/>
<path d="M802.924 106.551C808.512 105.734 814.053 104.846 819.548 103.888C817.522 102.295 815.489 100.711 813.45 99.1325C806.836 94.252 800.173 89.4502 793.462 84.7273C786.672 80.168 779.85 75.6936 772.997 71.3041C766.098 67.0895 759.185 62.9649 752.258 58.9302C745.32 55.0802 738.384 51.3244 731.452 47.663C724.542 44.1938 717.651 40.8224 710.78 37.5486C703.965 34.4729 697.185 31.4974 690.442 28.6221C683.786 25.9489 677.182 23.3774 670.63 20.9076C664.197 18.642 657.831 16.4787 651.532 14.4177C645.381 12.5612 639.311 10.8066 633.323 9.1539C627.51 7.70397 621.793 6.35474 616.17 5.10616C610.749 4.05692 605.435 3.10614 600.229 2.25385C595.248 1.59568 590.385 1.03294 585.64 0.56564C581.142 0.285536 576.773 0.0969853 572.532 0C568.556 0.0816828 564.717 0.250271 561.015 0.505769C557.595 0.929899 554.319 1.43555 551.188 2.02275C548.351 2.7671 545.665 3.58698 543.128 4.48231C540.897 5.5221 538.821 6.63071 536.899 7.80819C535.29 9.11626 533.838 10.486 532.544 11.9174C531.567 13.4645 530.75 15.0656 530.091 16.7208C529.752 18.4759 529.571 20.2771 529.55 22.1242C529.846 24.055 530.299 26.0235 530.911 28.0295C531.835 30.1023 532.914 32.2043 534.148 34.3352C535.688 36.5157 537.379 38.7165 539.221 40.9377C541.358 43.1909 543.641 45.4557 546.069 47.7322C548.78 50.023 551.63 52.3168 554.619 54.6136C557.876 56.9073 561.264 59.1953 564.783 61.4775C568.553 63.7397 572.445 65.9878 576.458 68.2215C580.704 70.4187 585.061 72.5934 589.53 74.7457C594.211 76.8453 598.993 78.9146 603.875 80.9536C608.946 82.9245 614.107 84.8577 619.356 86.7532C624.771 88.566 630.262 90.3341 635.831 92.0576C641.539 93.6848 647.312 95.2609 653.148 96.7858C659.1 98.2021 665.101 99.5614 671.154 100.864C677.294 102.046 683.472 103.166 689.686 104.223C695.962 105.151 702.262 106.012 708.585 106.805C714.942 107.46 721.309 108.045 727.687 108.559C734.071 108.926 740.451 109.22 746.829 109.439C753.187 109.507 759.528 109.499 765.853 109.413C772.131 109.173 778.381 108.854 784.601 108.456C790.75 107.901 796.858 107.266 802.924 106.551Z" fill="#FFC788"/>
<path d="M912.331 201.245C908.122 195.093 903.772 188.968 899.282 182.872C895.582 178.18 891.804 173.512 887.95 168.867L880.983 188.027C878.531 191.546 875.96 195.013 873.27 198.429C870.345 201.735 867.304 204.984 864.147 208.176C860.762 211.25 857.266 214.261 853.657 217.21C849.831 220.029 845.898 222.784 841.858 225.472C837.612 228.023 833.266 230.504 828.819 232.915C824.18 235.182 819.448 237.375 814.624 239.495C809.623 241.465 804.537 243.36 799.368 245.178C794.039 246.842 788.636 248.428 783.158 249.937C777.541 251.287 771.86 252.558 766.114 253.752C765.738 253.818 765.362 253.884 764.985 253.949C769.419 257.433 773.822 260.952 778.195 264.504C784.419 269.815 790.561 275.191 796.622 280.632C802.503 286.192 808.288 291.809 813.974 297.482C819.451 303.259 824.815 309.082 830.066 314.953C835.078 320.909 839.962 326.902 844.72 332.933C849.21 339.03 853.56 345.154 857.769 351.306C861.685 357.505 865.449 363.72 869.06 369.952C872.355 376.211 875.486 382.475 878.454 388.746C881.084 395.021 883.542 401.292 885.826 407.559C886.984 411.311 888.077 415.058 889.105 418.799C894.431 414.846 899.579 410.793 904.549 406.639C909.159 402.288 913.583 397.845 917.821 393.308C921.682 388.593 925.351 383.793 928.829 378.908C931.92 373.862 934.816 368.74 937.516 363.542C939.824 358.199 941.934 352.791 943.846 347.315C945.364 341.716 946.683 336.059 947.805 330.346C948.533 324.528 949.065 318.664 949.4 312.753C949.346 306.759 949.099 300.728 948.659 294.662C947.838 288.534 946.829 282.38 945.632 276.2C944.065 269.981 942.318 263.747 940.388 257.498C938.104 251.231 935.647 244.96 933.016 238.685C930.048 232.414 926.917 226.15 923.623 219.891C920.011 213.659 916.248 207.444 912.331 201.245Z" fill="#FFC788"/>
<path d="M702.895 824.219C692.266 825.116 681.539 825.874 670.712 826.492C658.51 826.834 646.211 827.006 633.816 827.008C621.254 826.672 608.622 826.168 595.92 825.495C583.104 824.49 570.244 823.321 557.341 821.987C544.379 820.332 531.4 818.517 518.406 816.544C505.407 814.259 492.421 811.823 479.446 809.235C466.523 806.352 453.64 803.325 440.796 800.155C428.061 796.708 415.392 793.126 402.792 789.41C390.354 785.438 378.011 781.343 365.763 777.125C353.733 772.672 341.824 768.11 330.037 763.436C318.519 758.553 307.15 753.574 295.928 748.497C285.026 743.238 274.298 737.896 263.741 732.471C253.553 726.894 243.561 721.249 233.765 715.535C224.383 709.702 215.219 703.815 206.272 697.875C197.782 691.846 189.528 685.782 181.513 679.682C173.992 673.527 166.726 667.352 159.716 661.157C153.234 654.942 147.024 648.724 141.085 642.503C138.362 639.362 135.711 636.225 133.134 633.091C128.341 634.085 123.637 635.139 119.024 636.253C111.753 638.472 104.757 640.854 98.0339 643.398C91.8719 646.258 85.997 649.27 80.4091 652.436C75.407 655.893 70.7029 659.491 66.2967 663.229C62.4954 667.236 59.0001 671.37 55.811 675.631C53.2402 680.133 50.9809 684.748 49.0331 689.478C47.7114 694.419 46.7039 699.458 46.0102 704.596C45.945 709.916 46.1936 715.317 46.7559 720.802C47.9432 726.436 49.4411 732.136 51.2497 737.903C53.6745 743.786 56.404 749.718 59.4383 755.7C63.0744 761.764 67.0069 767.86 71.2355 773.99C76.0463 780.166 81.1423 786.358 86.5235 792.565C92.4621 798.785 98.6723 805.002 105.154 811.218C112.164 817.413 119.429 823.588 126.951 829.743C134.966 835.843 143.219 841.908 151.71 847.936C160.657 853.876 169.821 859.762 179.203 865.597C188.999 871.31 198.991 876.955 209.179 882.532C219.735 887.957 230.464 893.3 241.365 898.558C252.587 903.635 263.957 908.615 275.474 913.497C287.261 918.171 299.17 922.733 311.201 927.186C323.449 931.404 335.791 935.499 348.229 939.471C360.83 943.187 373.498 946.769 386.234 950.216C399.077 953.386 411.961 956.414 424.884 959.296C437.858 961.884 450.845 964.321 463.843 966.605C476.838 968.578 489.816 970.393 502.779 972.048C515.682 973.382 528.541 974.551 541.357 975.556C554.06 976.229 566.692 976.733 579.253 977.069C591.648 977.067 603.947 976.895 616.149 976.553C628.134 975.868 639.997 975.013 651.739 973.987C663.215 972.619 674.546 971.079 685.732 969.371C696.605 967.323 707.312 965.106 717.851 962.722C728.035 960.004 738.032 957.122 747.841 954.076C757.256 950.706 766.465 947.176 775.467 943.487C784.04 939.485 792.39 935.331 800.517 931.025C802.98 929.545 805.419 928.051 807.833 926.541C801.165 918.489 794.328 910.467 787.321 902.474C778.1 892.638 768.639 882.865 758.937 873.156C748.78 863.592 738.408 854.109 727.821 844.706C719.617 837.822 711.309 830.993 702.895 824.219Z" fill="#FF8906"/>
<path d="M125.797 623.929C121.569 617.799 117.636 611.703 114 605.639C110.966 599.657 108.237 593.725 105.812 587.842C104.003 582.075 102.506 576.374 101.318 570.741C100.756 565.256 100.507 559.855 100.573 554.535C101.266 549.397 102.274 544.357 103.596 539.416L49.0331 689.478C50.9809 684.748 53.2402 680.133 55.811 675.631C59.0001 671.37 62.4954 667.236 66.2967 663.229C70.7029 659.491 75.407 655.893 80.4091 652.436C85.997 649.27 91.8719 646.258 98.0339 643.398C104.757 640.854 111.753 638.472 119.024 636.253C123.637 635.139 128.341 634.085 133.134 633.091C130.619 630.034 128.173 626.979 125.797 623.929Z" fill="#FF8906"/>
<path d="M862.395 776.48C859.981 777.99 857.543 779.484 855.08 780.964C846.953 785.27 838.603 789.424 830.03 793.425C821.027 797.115 811.819 800.645 802.404 804.015C792.595 807.061 782.598 809.943 772.413 812.66C761.874 815.045 751.168 817.262 740.294 819.31C729.108 821.018 717.778 822.557 706.302 823.925C705.167 824.025 704.032 824.123 702.895 824.219C711.309 830.994 719.617 837.822 727.821 844.706C738.408 854.109 748.78 863.592 758.937 873.156C768.639 882.865 778.1 892.638 787.321 902.474C794.328 910.467 801.165 918.489 807.833 926.541C812.932 923.353 817.923 920.098 822.804 916.775C829.507 911.6 835.961 906.289 842.166 900.842C847.86 895.133 853.295 889.299 858.47 883.339C863.118 877.139 867.498 870.824 871.611 864.395C875.184 857.75 878.485 851.003 881.514 844.153C883.995 837.112 886.2 829.981 888.131 822.762C888.712 819.657 889.244 816.538 889.727 813.405C889.594 813.196 889.462 812.987 889.329 812.779C882.252 802.62 874.892 792.487 867.247 782.381C865.64 780.412 864.023 778.445 862.395 776.48Z" fill="#FF8906"/>
<path d="M888.923 757.452C885.157 760.586 881.305 763.674 877.366 766.714C872.485 770.037 867.495 773.292 862.395 776.48C864.023 778.445 865.64 780.412 867.247 782.381C874.892 792.487 882.252 802.62 889.329 812.779L889.727 813.405C890.393 809.09 890.966 804.75 891.447 800.384C891.729 792.713 891.738 784.98 891.475 777.186C890.808 770.639 889.958 764.062 888.923 757.452Z" fill="#FF8906"/>
<path d="M936.076 694.092C933.048 700.942 929.747 707.688 926.174 714.334C922.06 720.763 917.68 727.077 913.032 733.277C907.857 739.237 902.422 745.071 896.728 750.78C894.169 753.027 891.567 755.251 888.923 757.452C889.958 764.062 890.808 770.639 891.475 777.186C891.738 784.98 891.729 792.713 891.447 800.384C890.966 804.75 890.393 809.09 889.727 813.405C890.358 814.398 890.986 815.39 891.611 816.383L936.076 694.092Z" fill="#FF8906"/>
<path d="M888.131 822.762C886.2 829.981 883.995 837.112 881.514 844.153L891.611 816.383C890.986 815.39 890.358 814.398 889.727 813.405C889.244 816.538 888.712 819.657 888.131 822.762Z" fill="#FF8906"/>
<path d="M411.101 393.615C409.746 392.872 408.397 392.126 407.052 391.378C400.279 387.352 393.674 383.292 387.236 379.198C381.149 375.046 375.244 370.871 369.522 366.675C364.178 362.447 359.03 358.208 354.077 353.96C349.527 349.706 345.184 345.456 341.049 341.207C337.337 336.979 333.843 332.768 330.565 328.571C327.729 324.421 325.118 320.3 322.732 316.209C320.801 312.188 319.101 308.21 317.632 304.274C316.628 300.434 315.859 296.649 315.324 292.918C315.261 289.31 315.434 285.768 315.843 282.293C316.057 281.489 316.283 280.689 316.524 279.894L264.635 422.602C266.459 419.598 268.517 416.684 270.808 413.86C273.562 411.225 276.545 408.692 279.757 406.257C283.421 404.033 287.306 401.92 291.414 399.915C295.958 398.139 300.715 396.482 305.686 394.944C311.073 393.649 316.663 392.482 322.455 391.441C328.64 390.659 335.014 390.01 341.579 389.494C348.509 389.25 355.614 389.144 362.894 389.176C370.508 389.489 378.282 389.947 386.214 390.545C394.372 391.425 402.667 392.449 411.101 393.615Z" fill="#FF8906"/>
<path d="M606.258 458.937C599.987 457.91 593.723 456.839 587.466 455.721C577.878 453.784 568.326 451.745 558.811 449.602C549.39 447.259 540.026 444.82 530.719 442.285C521.546 439.565 512.451 436.758 503.433 433.863C494.59 430.801 485.844 427.661 477.195 424.442C468.76 421.075 460.441 417.64 452.238 414.136C444.286 410.505 436.469 406.817 428.786 403.071C422.792 399.95 416.897 396.798 411.101 393.615C402.667 392.449 394.372 391.425 386.214 390.545C378.282 389.947 370.508 389.489 362.894 389.176C355.614 389.144 348.509 389.25 341.579 389.494C335.014 390.01 328.64 390.659 322.455 391.441C316.663 392.482 311.073 393.649 305.686 394.944C300.715 396.482 295.958 398.139 291.414 399.915C287.306 401.92 283.421 404.033 279.757 406.257C276.545 408.692 273.562 411.225 270.808 413.86C268.517 416.684 266.459 419.598 264.635 422.602C263.281 425.774 262.163 429.024 261.281 432.354C260.872 435.829 260.699 439.371 260.762 442.979C261.297 446.71 262.066 450.495 263.07 454.335C264.539 458.271 266.239 462.249 268.169 466.27C270.432 470.149 272.896 474.055 275.563 477.987C279.42 478.176 283.301 478.388 287.207 478.624C298.562 479.674 310.088 480.916 321.784 482.351C333.794 484.175 345.948 486.192 358.246 488.403C370.804 491.003 383.477 493.797 396.266 496.784C409.257 500.155 422.335 503.719 435.5 507.473C448.807 511.606 462.17 515.926 475.589 520.434C489.09 525.31 502.616 530.367 516.168 535.605C529.738 541.2 543.302 546.968 556.859 552.909C570.373 559.189 583.849 565.635 597.287 572.244C610.618 579.173 623.879 586.257 637.071 593.493C649.811 600.863 662.455 608.369 675.002 616.011C675.326 615.997 675.65 615.982 675.973 615.968C685.021 615.31 693.986 614.527 702.868 613.619C711.567 612.462 720.165 611.179 728.663 609.771C736.944 608.116 745.108 606.337 753.155 604.435C760.954 602.288 768.62 600.02 776.154 597.632C781.574 595.671 786.913 593.644 792.17 591.551C789.525 588.828 786.859 586.112 784.171 583.404C776.173 575.804 768.021 568.273 759.715 560.813C751.121 553.505 742.394 546.28 733.533 539.137C724.429 532.171 715.215 525.299 705.889 518.521C696.366 511.943 686.755 505.47 677.057 499.1C667.208 492.951 657.295 486.917 647.319 480.997C637.24 475.314 627.122 469.754 616.964 464.319C613.397 462.508 609.829 460.714 606.258 458.937Z" fill="#FF8906"/>
<path d="M321.784 482.351C310.088 480.916 298.562 479.674 287.207 478.624C283.301 478.388 279.42 478.176 275.563 477.987C275.709 478.202 275.855 478.417 276.003 478.632C279.28 482.829 282.775 487.04 286.486 491.268C290.622 495.517 294.965 499.767 299.514 504.021C304.467 508.269 309.616 512.508 314.96 516.736C320.682 520.932 326.587 525.107 332.674 529.259C339.112 533.353 345.717 537.413 352.49 541.439C359.583 545.383 366.827 549.281 374.224 553.132C381.907 556.878 389.724 560.566 397.676 564.197C405.878 567.701 414.197 571.136 422.633 574.503C431.282 577.722 440.028 580.862 448.871 583.924C457.889 586.819 466.984 589.627 476.156 592.346C485.463 594.881 494.828 597.32 504.249 599.663C513.764 601.806 523.315 603.845 532.903 605.782C542.544 607.504 552.2 609.118 561.872 610.62C571.555 611.897 581.233 613.061 590.906 614.108C600.55 614.921 610.168 615.614 619.762 616.189C629.285 616.521 638.763 616.731 648.196 616.818C657.191 616.664 666.127 616.395 675.002 616.011C662.455 608.369 649.811 600.863 637.071 593.493C623.879 586.257 610.618 579.173 597.287 572.244C583.849 565.635 570.373 559.189 556.859 552.909C543.302 546.968 529.738 541.2 516.168 535.605C502.616 530.367 489.09 525.31 475.589 520.434C462.17 515.926 448.807 511.606 435.5 507.473C422.335 503.719 409.257 500.155 396.266 496.784C383.477 493.797 370.804 491.003 358.246 488.403C345.948 486.192 333.794 484.175 321.784 482.351Z" fill="#FF8906"/>
<path d="M846.733 441.49C841.475 443.583 836.136 445.61 830.716 447.571C823.182 449.959 815.516 452.227 807.718 454.374C799.671 456.276 791.507 458.055 783.226 459.71C774.728 461.118 766.129 462.401 757.431 463.558C748.548 464.466 739.583 465.249 730.536 465.907C721.341 466.315 712.082 466.598 702.758 466.757C693.325 466.67 683.847 466.46 674.324 466.128C664.731 465.553 655.112 464.859 645.469 464.047C635.795 463 626.117 461.836 616.434 460.559C613.04 460.032 609.648 459.491 606.258 458.937C609.829 460.714 613.397 462.508 616.964 464.319C627.122 469.754 637.24 475.314 647.319 480.997C657.295 486.917 667.208 492.951 677.057 499.1C686.755 505.47 696.366 511.943 705.889 518.521C715.215 525.299 724.429 532.171 733.533 539.137C742.394 546.28 751.121 553.505 759.715 560.813C768.021 568.273 776.173 575.804 784.171 583.404C786.859 586.112 789.525 588.828 792.17 591.551C793.951 590.842 795.722 590.126 797.485 589.403C804.145 586.313 810.646 583.109 816.99 579.794C823.006 576.259 828.853 572.618 834.531 568.869C839.861 564.913 845.013 560.857 849.987 556.7C854.596 552.349 859.02 547.906 863.258 543.369C867.119 538.654 870.789 533.854 874.267 528.969C877.358 523.923 880.253 518.801 882.954 513.603L890.386 493.163C890.422 493.017 890.459 492.871 890.496 492.726C887.543 488.692 884.538 484.666 881.482 480.645C874.919 472.619 868.163 464.636 861.213 456.695C856.46 451.603 851.633 446.535 846.733 441.49Z" fill="#FF8906"/>
<path d="M937.516 363.542C934.816 368.74 931.92 373.862 928.829 378.908C925.351 383.793 921.682 388.593 917.821 393.308C913.583 397.845 909.159 402.288 904.549 406.639C899.579 410.793 894.431 414.846 889.105 418.799C889.789 421.289 890.444 423.776 891.07 426.261C892.267 432.441 893.275 438.595 894.097 444.723C894.536 450.789 894.784 456.82 894.838 462.814C894.502 468.725 893.971 474.589 893.243 480.406C892.431 484.542 891.515 488.649 890.496 492.726C890.506 492.741 890.517 492.756 890.528 492.77L937.516 363.542Z" fill="#FF8906"/>
<path d="M889.093 418.808C883.415 422.557 877.568 426.198 871.552 429.733C865.209 433.048 858.707 436.252 852.047 439.342C850.285 440.065 848.513 440.781 846.733 441.49C851.633 446.535 856.46 451.603 861.213 456.695C868.163 464.636 874.919 472.619 881.482 480.645C884.538 484.666 887.543 488.692 890.496 492.726C891.515 488.649 892.431 484.542 893.243 480.406C893.971 474.589 894.502 468.725 894.838 462.814C894.784 456.82 894.536 450.789 894.097 444.723C893.275 438.595 892.267 432.441 891.07 426.261C890.444 423.776 889.789 421.289 889.105 418.799L889.093 418.808Z" fill="#FF8906"/>
<path d="M748.361 256.613C753.949 255.795 759.491 254.907 764.985 253.949C762.959 252.357 760.927 250.772 758.888 249.194C752.274 244.313 745.611 239.511 738.9 234.788C732.109 230.229 725.287 225.755 718.434 221.365C711.536 217.151 704.623 213.026 697.696 208.991C690.757 205.141 683.822 201.386 676.889 197.724C669.979 194.255 663.088 190.884 656.217 187.61C649.402 184.534 642.623 181.558 635.879 178.684C629.224 176.01 622.62 173.438 616.068 170.969C609.635 168.703 603.268 166.54 596.969 164.479C590.818 162.622 584.749 160.868 578.76 159.215C572.948 157.765 567.231 156.416 561.608 155.168C556.187 154.118 550.873 153.168 545.666 152.315C540.685 151.657 535.822 151.094 531.078 150.627C526.58 150.347 522.21 150.158 517.969 150.062C513.993 150.143 510.155 150.312 506.453 150.567C503.033 150.991 499.757 151.497 496.625 152.084C493.789 152.828 491.102 153.648 488.566 154.543C486.335 155.583 484.258 156.692 482.336 157.869C480.727 159.178 479.276 160.547 477.982 161.979C477.005 163.525 476.187 165.127 475.529 166.782C475.189 168.537 475.009 170.338 474.987 172.185C475.283 174.116 475.737 176.085 476.348 178.091C477.272 180.163 478.352 182.265 479.586 184.396C481.126 186.577 482.817 188.778 484.658 190.999C486.796 193.252 489.078 195.517 491.506 197.793C494.218 200.084 497.068 202.378 500.056 204.675C503.314 206.968 506.702 209.257 510.22 211.539C513.99 213.801 517.882 216.048 521.895 218.283C526.141 220.48 530.499 222.654 534.968 224.807C539.649 226.906 544.43 228.976 549.312 231.015C554.384 232.986 559.544 234.919 564.793 236.814C570.208 238.627 575.7 240.395 581.268 242.119C586.977 243.746 592.75 245.322 598.586 246.847C604.537 248.263 610.539 249.622 616.591 250.925C622.732 252.107 628.909 253.227 635.124 254.284C641.4 255.212 647.699 256.073 654.023 256.866C660.38 257.521 666.747 258.106 673.124 258.62C679.508 258.987 685.889 259.281 692.266 259.5C698.624 259.569 704.965 259.561 711.29 259.474C717.569 259.234 723.818 258.915 730.039 258.517C736.188 257.962 742.295 257.327 748.361 256.613Z" fill="#FF8906"/>
<path d="M819.548 103.888C814.053 104.846 808.512 105.734 802.924 106.551C796.858 107.266 790.75 107.901 784.601 108.456C778.381 108.854 772.131 109.173 765.853 109.413C759.528 109.499 753.187 109.507 746.829 109.439C740.451 109.22 734.071 108.926 727.687 108.559C721.309 108.045 714.942 107.46 708.585 106.805C702.262 106.012 695.962 105.151 689.686 104.223C683.472 103.166 677.294 102.046 671.154 100.864C665.101 99.5614 659.1 98.2021 653.148 96.7858C647.312 95.2609 641.539 93.6848 635.831 92.0576C630.262 90.3342 624.771 88.5661 619.356 86.7532C614.107 84.8577 608.946 82.9245 603.875 80.9536C598.993 78.9146 594.211 76.8453 589.53 74.7458C585.061 72.5934 580.704 70.4187 576.458 68.2215C572.445 65.9878 568.553 63.7397 564.783 61.4775C561.264 59.1953 557.876 56.9073 554.619 54.6136C551.63 52.3168 548.78 50.023 546.069 47.7322C543.641 45.4557 541.358 43.1909 539.221 40.9377C537.379 38.7165 535.688 36.5157 534.148 34.3352C532.914 32.2043 531.835 30.1023 530.911 28.0295C530.299 26.0235 529.846 24.055 529.55 22.1242C529.571 20.2771 529.752 18.4759 530.091 16.7208L475.529 166.782C476.187 165.127 477.005 163.525 477.982 161.979C479.276 160.547 480.727 159.178 482.336 157.869C484.258 156.692 486.335 155.583 488.566 154.543C491.102 153.648 493.789 152.828 496.625 152.084C499.757 151.497 503.033 150.991 506.453 150.567C510.155 150.312 513.993 150.143 517.969 150.062C522.21 150.158 526.58 150.347 531.078 150.627C535.822 151.094 540.685 151.657 545.666 152.315C550.873 153.168 556.187 154.118 561.608 155.168C567.231 156.416 572.948 157.765 578.76 159.215C584.749 160.868 590.818 162.622 596.969 164.479C603.268 166.54 609.635 168.703 616.068 170.969C622.62 173.438 629.224 176.01 635.879 178.684C642.623 181.558 649.402 184.534 656.217 187.61C663.088 190.884 669.979 194.255 676.889 197.724C683.822 201.386 690.757 205.141 697.696 208.991C704.623 213.026 711.536 217.151 718.434 221.365C725.287 225.755 732.109 230.229 738.9 234.788C745.611 239.511 752.274 244.313 758.888 249.194C760.927 250.772 762.959 252.357 764.985 253.949C765.362 253.884 765.738 253.818 766.114 253.752C771.86 252.558 777.541 251.287 783.158 249.937C788.636 248.428 794.039 246.842 799.368 245.178C804.537 243.36 809.623 241.465 814.624 239.495C819.448 237.375 824.18 235.182 828.819 232.915C833.266 230.504 837.612 228.023 841.858 225.472C845.898 222.784 849.831 220.029 853.657 217.21C857.266 214.261 860.762 211.25 864.147 208.176C867.304 204.984 870.345 201.735 873.27 198.429C875.96 195.013 878.531 191.546 880.983 188.027L887.95 168.867C886.849 167.539 885.742 166.215 884.628 164.892C879.377 159.021 874.013 153.198 868.537 147.421C862.85 141.748 857.066 136.131 851.184 130.57C845.123 125.13 838.981 119.754 832.757 114.442C828.385 110.89 823.982 107.372 819.548 103.888Z" fill="#FF8906"/>
<path d="M935.545 37.9655C933.093 41.4846 930.522 44.9518 927.832 48.3672C924.907 51.6737 921.866 54.923 918.709 58.1152C915.325 61.1882 911.828 64.1993 908.22 67.1483C904.393 69.9688 900.46 72.723 896.421 75.4108C892.174 77.9619 887.828 80.4428 883.382 82.8535C878.742 85.1204 874.011 87.3138 869.186 89.4338C864.185 91.4042 859.1 93.2986 853.93 95.1168C848.602 96.781 843.199 98.3671 837.721 99.8757C832.104 101.226 826.422 102.497 820.676 103.691C820.3 103.757 819.924 103.823 819.548 103.888C823.982 107.372 828.385 110.89 832.757 114.442C838.981 119.754 845.123 125.13 851.184 130.57C857.066 136.131 862.85 141.748 868.537 147.421C874.013 153.198 879.377 159.021 884.628 164.892C885.742 166.215 886.849 167.539 887.95 168.867L935.545 37.9655Z" fill="#FF8906"/>
</svg>
